<svg width="48" height="42" viewBox="0 0 48 42" fill="none" xmlns="http://www.w3.org/2000/svg">
<path d="M19 0C29.4934 0 37.9999 8.50667 38 19V23C38 27.1638 36.6591 31.0137 34.3877 34.1445L36.2637 36.0205C37.435 37.192 37.4349 39.0912 36.2637 40.2627C35.0921 41.4343 33.1921 41.4343 32.0205 40.2627L30.1445 38.3867C27.0136 40.6584 23.164 42 19 42C8.50674 41.9999 0.000129562 33.4932 0 23V19C9.38478e-05 8.50672 8.50672 8.76169e-05 19 0ZM19 7C12.3726 7 7 12.3726 7 19V23C7 29.6274 12.3726 35 19 35C21.2252 35 23.3073 34.3914 25.0938 33.3359L22.1211 30.3633C20.9498 29.1918 20.9498 27.2926 22.1211 26.1211C23.2927 24.9495 25.1927 24.9495 26.3643 26.1211L29.3359 29.0928C30.3912 27.3065 31 25.2249 31 23V19C31 12.3726 25.6274 7 19 7Z" fill="#6201E0"/>
<rect x="42" y="36" width="6" height="6" rx="3" fill="#6201E0"/>
</svg>
